<?xml version="1.0" encoding="utf-8"?>
<svg version="1.0" viewBox="0 0 463.956 61.533" xmlns="http://www.w3.org/2000/svg">
  <path d="M 0.015 59.179 C 0.085 57.789 0.244 57.724 4.951 57.149 L 9.443 56.601 L 9.637 55.505 C 9.867 54.21 9.855 28.793 9.618 13.58 L 9.452 2.902 L 8.219 2.538 C 7.54 2.337 5.521 2.069 3.732 1.941 C 0.414 1.703 0.009 1.545 0 0.48 C -0.004 0.03 0.775 0 12.564 0 C 31.309 0 36.693 0.597 41.795 3.24 C 45.552 5.186 48.123 8.59 48.435 12.032 C 48.72 15.177 47.345 19.802 45.194 22.928 C 42.103 27.421 35.568 31.585 28.913 33.303 C 25.015 34.31 24.39 34.378 24.394 33.795 C 24.404 32.417 24.692 32.151 27.281 31.127 C 30.511 29.848 32.653 28.471 34.351 26.579 C 37.132 23.484 38.213 20.111 38.041 15.071 C 37.943 12.219 37.849 11.735 37.061 10.051 C 34.908 5.451 30.331 3.012 23.018 2.568 L 20.066 2.389 L 19.83 3.593 C 19.563 4.953 19.606 47.249 19.88 52.807 C 20.047 56.191 20.095 56.424 20.648 56.577 C 20.973 56.667 23.335 56.933 25.898 57.168 C 28.461 57.403 30.712 57.645 30.9 57.706 C 31.088 57.767 31.243 58.13 31.243 58.511 L 31.243 59.205 L 18.951 59.205 C 12.191 59.205 5.161 59.286 3.328 59.384 C 0.561 59.533 -0.001 59.498 0.015 59.179 Z"/>
  <path d="M 101.772 58.853 C 101.774 58.513 101.866 58.105 101.976 57.947 C 102.086 57.789 103.606 57.506 105.354 57.319 C 107.103 57.131 109.125 56.831 109.848 56.653 C 111.164 56.328 111.164 56.328 111.344 54.966 C 111.732 52.04 111.436 4.016 111.026 3.353 C 110.925 3.189 108.892 2.806 106.509 2.501 C 104.126 2.197 102.155 1.927 102.13 1.902 C 102.105 1.877 102 1.52 101.896 1.108 L 101.709 0.36 L 114.361 0.36 C 121.32 0.36 127.97 0.279 129.138 0.18 L 131.263 0 L 131.067 0.793 C 130.959 1.229 130.788 1.668 130.686 1.769 C 130.584 1.871 128.57 2.188 126.21 2.474 C 123.85 2.76 121.828 3.086 121.716 3.198 C 121.437 3.477 121.325 41.126 121.579 49.519 L 121.786 56.328 L 123.142 56.663 C 123.887 56.847 125.896 57.119 127.604 57.267 C 129.313 57.416 130.746 57.572 130.788 57.614 C 130.83 57.656 130.942 57.997 131.035 58.371 L 131.205 59.052 L 117.099 59.111 C 109.341 59.144 102.717 59.238 102.38 59.321 C 101.88 59.443 101.768 59.357 101.772 58.853 Z"/>
  <path d="M 238.48 60.131 C 233.784 56.3 225.415 47.311 214.7 34.588 C 213.531 33.2 212.466 32.064 212.333 32.064 C 211.414 32.064 200.411 48.856 197.375 54.893 L 196.529 56.575 L 199.181 57.021 C 200.64 57.267 202.221 57.526 202.694 57.598 C 203.498 57.72 203.881 58.139 203.88 58.896 C 203.879 59.133 201.055 59.222 192.822 59.246 L 181.765 59.277 L 181.937 58.7 C 182.22 57.752 182.635 57.53 184.761 57.194 C 187.581 56.748 188.324 56.321 190.685 53.79 C 193.504 50.768 207.12 33.634 210.002 29.481 C 210.188 29.214 209.731 28.487 208.344 26.837 C 207.292 25.585 203.542 20.692 200.011 15.965 C 196.48 11.238 192.74 6.387 191.7 5.187 C 189.904 3.115 189.719 2.981 188.044 2.545 C 187.074 2.293 185.82 2.078 185.257 2.067 C 184.352 2.051 184.234 1.97 184.234 1.367 C 184.234 0.991 184.203 0.637 184.166 0.58 C 184.128 0.523 190.083 0.405 197.4 0.318 C 209.831 0.171 210.702 0.191 210.698 0.627 C 210.69 1.52 210.275 1.714 207.42 2.16 C 205.841 2.407 204.21 2.699 203.798 2.81 L 203.047 3.01 L 204.911 5.872 C 208.618 11.565 216.086 21.94 216.49 21.959 C 217.065 21.986 226.735 8.313 228.99 4.284 C 229.81 2.818 229.749 2.771 226.21 2.151 C 223.744 1.719 223.565 1.643 223.438 0.982 C 223.363 0.593 223.322 0.257 223.346 0.235 C 223.37 0.213 227.906 0.151 233.425 0.098 L 243.46 0 L 243.284 0.82 C 243.188 1.271 243.091 1.662 243.069 1.689 C 243.047 1.716 241.812 1.987 240.325 2.291 C 237.704 2.826 237.575 2.888 236.14 4.288 C 234.442 5.944 227.201 14.133 221.978 20.303 L 218.422 24.504 L 220.553 27.239 C 222.668 29.953 223.603 31.249 233.487 45.162 C 237.698 51.09 243.942 59.67 245.152 61.193 C 245.365 61.461 244.863 61.534 242.811 61.534 L 240.2 61.534 L 238.48 60.131 Z"/>
  <path d="M 458.088 59.532 C 453.512 56.136 443.765 46.427 434.049 35.589 L 430.157 31.246 L 426.219 31.411 C 424.053 31.502 422.182 31.665 422.062 31.774 C 421.799 32.011 422.146 55.244 422.419 55.685 C 422.682 56.111 424.175 56.403 428.032 56.784 C 431.209 57.098 431.345 57.137 431.508 57.786 C 431.601 58.157 431.641 58.494 431.596 58.536 C 431.551 58.577 425.007 58.656 417.052 58.71 L 402.589 58.808 C 402.551 58.272 402.601 57.822 402.928 57.389 C 403.115 57.247 405.159 56.92 407.471 56.662 C 409.817 56.401 411.758 56.058 411.864 55.886 C 411.969 55.716 412.143 54.531 412.251 53.252 C 412.47 50.661 412.157 4.723 411.912 3.5 C 411.719 2.532 410.778 2.228 407.342 2.022 C 402.749 1.748 402.589 1.707 402.589 0.799 L 402.589 0 L 412.435 0.01 C 439.822 0.038 445.939 0.961 450.234 5.716 C 452.91 8.678 453.187 12.581 451.032 16.981 C 449.426 20.263 445.188 24.69 441.783 26.645 L 440.372 27.455 L 441.354 29.142 C 442.758 31.554 450.536 43.184 453.745 47.668 C 456.979 52.188 458.682 54.376 461.704 57.894 L 463.956 60.516 L 462.244 60.814 C 461.303 60.978 460.461 61.112 460.374 61.112 C 460.288 61.112 459.259 60.401 458.088 59.532 Z M 429.321 28.213 C 433.099 27.459 435.627 26.172 438.057 23.769 C 440.285 21.564 441.25 19.787 441.871 16.745 C 443.153 10.458 439.045 5.255 431.218 3.253 C 428.229 2.489 422.78 1.972 422.34 2.412 C 422.091 2.661 421.986 6.012 421.918 15.937 L 421.828 29.131 L 424.227 28.941 C 425.546 28.837 427.839 28.51 429.321 28.213 Z"/>
  <path d="M 286.166 58.419 C 286.308 57.453 286.056 57.543 290.595 56.833 L 293.734 56.342 L 294.749 54.432 C 296.692 50.776 300.771 40.75 309.073 19.226 C 312.455 10.457 315.198 2.937 315.063 2.802 C 314.998 2.738 313.734 2.498 312.254 2.27 C 308.132 1.634 308.334 1.706 308.336 0.868 L 308.336 0.122 L 321.335 0.036 C 333.32 -0.044 334.32 -0.015 334.161 0.399 C 334.066 0.647 333.988 1.001 333.988 1.186 C 333.988 1.405 332.89 1.695 330.845 2.016 C 329.117 2.287 327.641 2.609 327.565 2.731 C 327.49 2.853 328.896 7.105 330.689 12.181 C 337.225 30.675 342.759 44.871 346.533 52.82 L 348.106 56.134 L 349.439 56.447 C 350.713 56.747 354.371 57.271 355.312 57.289 C 355.593 57.294 355.802 57.59 355.875 58.084 L 355.99 58.871 L 341.646 58.991 C 333.757 59.057 327.286 59.102 327.266 59.091 C 327.246 59.08 327.288 58.691 327.359 58.226 L 327.488 57.381 L 331.217 56.922 C 335.93 56.341 336.257 56.257 336.008 55.692 C 335.698 54.988 333.327 48.284 331.652 43.379 C 330.806 40.902 329.497 37.249 328.744 35.26 L 327.373 31.644 L 325.837 31.644 C 321.585 31.644 307.647 32.514 307.363 32.797 C 306.771 33.389 302.946 47.183 301.931 52.386 C 301.55 54.339 301.239 55.983 301.239 56.039 C 301.239 56.248 302.546 56.53 305.605 56.982 C 308.688 57.438 308.745 57.459 308.83 58.19 L 308.917 58.935 L 298.869 58.937 C 293.343 58.938 288.196 59.015 287.431 59.107 L 286.041 59.274 L 286.166 58.419 Z M 326.346 28.503 C 326.203 28.127 325.898 27.457 325.669 27.014 C 325.279 26.258 321.793 16.16 319.076 7.913 C 318.411 5.894 317.825 4.2 317.775 4.15 C 317.449 3.825 308.607 27.478 308.607 28.673 C 308.607 28.801 311.708 28.94 315.498 28.983 C 319.288 29.026 323.338 29.089 324.498 29.124 L 326.606 29.187 L 326.346 28.503 Z"/>
</svg>
