<?xml version="1.0" encoding="utf-8"?>
<svg version="1.2" viewBox="0 0 78 78" xmlns="http://www.w3.org/2000/svg">
  <path d="M 0 24 C 0 10.7 10.7 0 24 0 L 54 0 C 67.3 0 78 10.7 78 24 L 78 54 C 78 67.3 67.3 78 54 78 L 24 78 C 10.7 78 0 67.3 0 54 L 0 24 Z" style="fill: #00a1e4;"/>
  <path d="M 6 54 C 6 63.9 14.1 72 24 72 L 54 72 C 63.9 72 72 63.9 72 54 L 72 24 C 72 14.1 63.9 6 54 6 L 24 6 C 14.1 6 6 14.1 6 24 L 6 54 Z" style="fill: #fff204;"/>
  <path d="M 19.8 17.2 L 40 17.2 C 46.9 17.2 52.1 18.8 55.4 21.7 C 58.3 24.2 59.9 27.7 59.9 32.2 L 59.9 32.6 C 59.9 39.2 56.2 43.4 50.7 45.7 L 61.3 62 L 46.4 62 L 37.6 48.1 L 32.9 48.1 L 32.9 62 L 19.8 62 Z M 39.5 39 C 44 39 46.6 36.7 46.6 33.1 L 46.6 33 C 46.6 29.2 43.8 27.2 39.4 27.2 L 32.9 27.2 L 32.9 39 Z" style="fill: #ec2b27;"/>
</svg>
