<?xml version="1.0" encoding="utf-8"?>
<svg version="1.2" viewBox="0 0 78 78" xmlns="http://www.w3.org/2000/svg">
  <path d="M 0 12 C 0 5.4 5.4 0 12 0 L 66 0 C 72.6 0 78 5.4 78 12 L 78 66 C 78 72.6 72.6 78 66 78 L 12 78 C 5.4 78 0 72.6 0 66 L 0 12 Z M 6 66 C 6 69.3 8.7 72 12 72 C 12 60.4 24.1 51 39 51 C 53.9 51 66 60.4 66 72 C 69.3 72 72 69.3 72 66 L 72 12 C 72 8.7 69.3 6 66 6 L 12 6 C 8.7 6 6 8.7 6 12 L 6 66 Z M 39 45 C 30.7 45 24 37.6 24 28.5 C 24 19.4 30.7 12 39 12 C 47.3 12 54 19.4 54 28.5 C 54 37.6 47.3 45 39 45 Z"/>
</svg>